<svg xmlns="http://www.w3.org/2000/svg" xmlns:xlink="http://www.w3.org/1999/xlink" width="48.22cm" height="498.898" viewBox="1.18 13.45 49.4 26.65"><rect width="10.107" height="4.1" x="10.521" y="22.5" fill="#FFF" stroke="none" stroke-width="0"/><rect width="10.107" height="4.1" x="10.521" y="22.5" fill="none" stroke="#FFF" stroke-width=".001"/><rect width="10.107" height="4.1" x="10.521" y="22.5" fill="none" stroke="#000" stroke-width=".1"/><text x="15.575" y="24.745" fill="#000" font-family="sans" font-size=".88" font-style="normal" font-weight="400" text-anchor="middle">Data on registers and stack</text><rect width="7.75" height="3.4" x="11.35" y="18.3" fill="#FFF" stroke="none" stroke-width="0"/><rect width="7.75" height="3.4" x="11.35" y="18.3" fill="none" stroke="#FFF" stroke-width=".001"/><rect width="7.75" height="3.4" x="11.35" y="18.3" fill="none" stroke="#000" stroke-width=".1"/><text x="15.225" y="20.195" fill="#000" font-family="sans" font-size=".88" font-style="normal" font-weight="400" text-anchor="middle">Resume data</text><rect width="9.8" height="3.4" x="20.4" y="13.7" fill="#FFF" stroke="none" stroke-width="0"/><rect width="9.8" height="3.4" x="20.4" y="13.7" fill="none" stroke="#FFF" stroke-width=".1"/><rect width="9.8" height="3.4" x="20.4" y="13.7" fill="none" stroke="#000" stroke-width=".1"/><text x="25.3" y="15.595" fill="#000" font-family="sans" font-size=".88" font-style="normal" font-weight="400" text-anchor="middle">Interpreter state rebuilt</text><path fill="none" stroke="#000" stroke-width=".1" d="M 20.629,24.550 C 23.073,23.006 24.743,20.495 25.223,17.644"/><polygon fill="#000" stroke="none" stroke-width=".001" points="25.486 17.675 25.294 17.15 24.99 17.618"/><polygon fill="none" stroke="#000" stroke-width=".001" points="25.486 17.675 25.294 17.15 24.99 17.618"/><polygon fill="none" stroke="#000" stroke-width=".1" points="25.486 17.675 25.294 17.15 24.99 17.618"/><path fill="none" stroke="#000" stroke-width=".1" d="M 19.150,19.573 C 20.399,19.139 21.535,18.431 22.473,17.499"/><polygon fill="#000" stroke="none" stroke-width=".001" points="22.672 17.677 22.817 17.137 22.298 17.345"/><polygon fill="none" stroke="#000" stroke-width=".001" points="22.672 17.677 22.817 17.137 22.298 17.345"/><polygon fill="none" stroke="#000" stroke-width=".1" points="22.672 17.677 22.817 17.137 22.298 17.345"/><rect width="6.4" height="3.8" x="12.45" y="13.6" fill="#FFF" stroke="none" stroke-width="0"/><rect width="6.4" height="3.8" x="12.45" y="13.6" fill="none" stroke="#FFF" stroke-width=".001"/><rect width="6.4" height="3.8" x="12.45" y="13.6" fill="none" stroke="#000" stroke-width=".1"/><text x="15.65" y="15.695" fill="#000" font-family="sans" font-size=".88" font-style="normal" font-weight="400" text-anchor="middle">Guard fails</text><line x1="18.9" x2="19.85" y1="15.432" y2="15.412" stroke="#000" stroke-width=".1"/><polygon fill="#000" stroke="none" stroke-width=".001" points="19.855 15.662 20.35 15.401 19.845 15.162"/><polygon fill="none" stroke="#000" stroke-width=".001" points="19.855 15.662 20.35 15.401 19.845 15.162"/><polygon fill="none" stroke="#000" stroke-width=".1" points="19.855 15.662 20.35 15.401 19.845 15.162"/><rect width="10.04" height="3.85" x="1.23" y="13.5" fill="#FFF" stroke="none" stroke-width="0"/><rect width="10.04" height="3.85" x="1.23" y="13.5" fill="none" stroke="#FFF" stroke-width=".001"/><rect width="10.04" height="3.85" x="1.23" y="13.5" fill="none" stroke="#000" stroke-width=".1"/><text x="6.25" y="15.62" fill="#000" font-family="sans" font-size=".88" font-style="normal" font-weight="400" text-anchor="middle">Compiled assembly running</text><line x1="11.27" x2="11.901" y1="15.425" y2="15.465" stroke="#000" stroke-width=".1"/><polygon fill="#000" stroke="none" stroke-width=".001" points="11.885 15.715 12.4 15.497 11.917 15.216"/><polygon fill="none" stroke="#000" stroke-width=".001" points="11.885 15.715 12.4 15.497 11.917 15.216"/><polygon fill="none" stroke="#000" stroke-width=".1" points="11.885 15.715 12.4 15.497 11.917 15.216"/><rect width="7.853" height="3" x="31.824" y="13.95" fill="#FFF" stroke="none" stroke-width="0"/><rect width="7.853" height="3" x="31.824" y="13.95" fill="none" stroke="#FFF" stroke-width=".001"/><rect width="7.853" height="3" x="31.824" y="13.95" fill="none" stroke="#000" stroke-width=".1"/><text x="35.75" y="15.645" fill="#000" font-family="sans" font-size=".88" font-style="normal" font-weight="400" text-anchor="middle">Blackhole interpreter</text><rect width="7.95" height="2.75" x="41.4" y="14.1" fill="#FFF" stroke="none" stroke-width="0"/><rect width="7.95" height="2.75" x="41.4" y="14.1" fill="none" stroke="#FFF" stroke-width=".001"/><rect width="7.95" height="2.75" x="41.4" y="14.1" fill="none" stroke="#000" stroke-width=".1"/><text x="45.375" y="15.67" fill="#000" font-family="sans" font-size=".88" font-style="normal" font-weight="400" text-anchor="middle">Bytecode interpreter</text><line x1="30.2" x2="31.274" y1="15.4" y2="15.433" stroke="#000" stroke-width=".1"/><polygon fill="#000" stroke="none" stroke-width=".001" points="31.266 15.683 31.774 15.448 31.282 15.183"/><polygon fill="none" stroke="#000" stroke-width=".001" points="31.266 15.683 31.774 15.448 31.282 15.183"/><polygon fill="none" stroke="#000" stroke-width=".1" points="31.266 15.683 31.774 15.448 31.282 15.183"/><line x1="39.726" x2="40.85" y1="15.468" y2="15.473" stroke="#000" stroke-width=".1"/><polygon fill="#000" stroke="none" stroke-width=".001" points="40.849 15.723 41.35 15.475 40.851 15.223"/><polygon fill="none" stroke="#000" stroke-width=".001" points="40.849 15.723 41.35 15.475 40.851 15.223"/><polygon fill="none" stroke="#000" stroke-width=".1" points="40.849 15.723 41.35 15.475 40.851 15.223"/><path fill="none" stroke="#000" stroke-width=".1" d="M 6.452,17.398 C 6.914,19.983 8.136,22.373 9.960,24.263"/><polygon fill="#000" stroke="none" stroke-width=".001" points="9.779 24.451 10.314 24.616 10.124 24.09"/><polygon fill="none" stroke="#000" stroke-width=".001" points="9.779 24.451 10.314 24.616 10.124 24.09"/><polygon fill="none" stroke="#000" stroke-width=".1" points="9.779 24.451 10.314 24.616 10.124 24.09"/></svg>