<svg xmlns="http://www.w3.org/2000/svg" xmlns:xlink="http://www.w3.org/1999/xlink" width="1064" height="624" fill="#000" fill-opacity="1" stroke="#000" stroke-dasharray="none" stroke-dashoffset="0" stroke-linecap="square" stroke-linejoin="miter" stroke-miterlimit="10" stroke-opacity="1" stroke-width="1" color-interpolation="auto" color-rendering="auto" font-family="'Dialog'" font-size="12" font-style="normal" font-weight="normal" image-rendering="auto" shape-rendering="auto" text-rendering="auto"><g><defs id="defs1"><clipPath id="clipPath1" clipPathUnits="userSpaceOnUse"><path d="M0 0 L1064 0 L1064 624 L0 624 L0 0 Z"/></clipPath><clipPath id="clipPath2" clipPathUnits="userSpaceOnUse"><path d="M-154 -160 L910 -160 L910 464 L-154 464 L-154 -160 Z"/></clipPath></defs><g fill="#fff" stroke="#fff" shape-rendering="geometricPrecision" text-rendering="geometricPrecision" transform="translate(154,160)"><rect width="1064" height="624" x="-154" y="-160" stroke="none" clip-path="url(#clipPath2)"/></g><g fill="#CFF" stroke="#CFF" shape-rendering="geometricPrecision" text-rendering="geometricPrecision" transform="matrix(1,0,0,1,154,160)"><rect width="159" height="42" x="-13.875" y="-92.125" stroke="none" clip-path="url(#clipPath2)" rx="4" ry="4"/></g><g stroke-linecap="butt" stroke-miterlimit="1.45" font-family="sans-serif" shape-rendering="geometricPrecision" text-rendering="geometricPrecision" transform="matrix(1,0,0,1,154,160)"><text x="15.334" y="-66.59" stroke="none" clip-path="url(#clipPath2)" xml:space="preserve">repo_observer.py</text><rect width="159" height="42" x="-13.875" y="-92.125" fill="none" clip-path="url(#clipPath2)" rx="4" ry="4"/></g><g fill="#CFF" stroke="#CFF" shape-rendering="geometricPrecision" text-rendering="geometricPrecision" transform="matrix(1,0,0,1,154,160)"><rect width="159" height="42" x="291.125" y="-92.125" stroke="none" clip-path="url(#clipPath2)" rx="4" ry="4"/></g><g stroke-linecap="butt" stroke-miterlimit="1.45" font-family="sans-serif" shape-rendering="geometricPrecision" text-rendering="geometricPrecision" transform="matrix(1,0,0,1,154,160)"><text x="331.317" y="-66.59" stroke="none" clip-path="url(#clipPath2)" xml:space="preserve">dispatcher.py</text><rect width="159" height="42" x="291.125" y="-92.125" fill="none" clip-path="url(#clipPath2)" rx="4" ry="4"/></g><g fill="#CFF" stroke="#CFF" shape-rendering="geometricPrecision" text-rendering="geometricPrecision" transform="matrix(1,0,0,1,154,160)"><rect width="159" height="42" x="627.125" y="-92.125" stroke="none" clip-path="url(#clipPath2)" rx="4" ry="4"/></g><g stroke-linecap="butt" stroke-miterlimit="1.45" font-family="sans-serif" shape-rendering="geometricPrecision" text-rendering="geometricPrecision" transform="matrix(1,0,0,1,154,160)"><text x="664.502" y="-66.59" stroke="none" clip-path="url(#clipPath2)" xml:space="preserve">test_runner.py</text><rect width="159" height="42" x="627.125" y="-92.125" fill="none" clip-path="url(#clipPath2)" rx="4" ry="4"/></g><g fill="#FC0" stroke="#FC0" shape-rendering="geometricPrecision" text-rendering="geometricPrecision" transform="matrix(1,0,0,1,154,160)"><rect width="130" height="30" x=".625" y="22.875" stroke="none" clip-path="url(#clipPath2)" rx="4" ry="4"/></g><g stroke-linecap="butt" stroke-miterlimit="1.45" font-family="sans-serif" shape-rendering="geometricPrecision" text-rendering="geometricPrecision" transform="matrix(1,0,0,1,154,160)"><text x="20.508" y="42.41" stroke="none" clip-path="url(#clipPath2)" xml:space="preserve">update_repo.sh</text><rect width="130" height="30" x=".625" y="22.875" fill="none" clip-path="url(#clipPath2)" rx="4" ry="4"/></g><g fill="#FC0" stroke="#FC0" shape-rendering="geometricPrecision" text-rendering="geometricPrecision" transform="matrix(1,0,0,1,154,160)"><rect width="159" height="30" x="591.188" y="149.375" stroke="none" clip-path="url(#clipPath2)" rx="4" ry="4"/></g><g stroke-linecap="butt" stroke-miterlimit="1.45" font-family="sans-serif" shape-rendering="geometricPrecision" text-rendering="geometricPrecision" transform="matrix(1,0,0,1,154,160)"><text x="609.352" y="168.91" stroke="none" clip-path="url(#clipPath2)" xml:space="preserve">test_runner_script.sh</text><rect width="159" height="30" x="591.188" y="149.375" fill="none" clip-path="url(#clipPath2)" rx="4" ry="4"/></g><g fill="#FC0" stroke="#FC0" shape-rendering="geometricPrecision" text-rendering="geometricPrecision" transform="matrix(1,0,0,1,154,160)"><rect width="99" height="30" x="16.125" y="104.875" stroke="none" clip-path="url(#clipPath2)"/></g><g stroke-linecap="butt" stroke-miterlimit="1.45" font-family="sans-serif" shape-rendering="geometricPrecision" text-rendering="geometricPrecision" transform="matrix(1,0,0,1,154,160)"><text x="26.856" y="124.41" stroke="none" clip-path="url(#clipPath2)" xml:space="preserve">New commit?</text><rect width="99" height="30" x="16.125" y="104.875" fill="none" clip-path="url(#clipPath2)"/></g><g fill="#FC0" stroke="#FC0" shape-rendering="geometricPrecision" text-rendering="geometricPrecision" transform="matrix(1,0,0,1,154,160)"><rect width="30" height="30" x="100.625" y="167.875" stroke="none" clip-path="url(#clipPath2)"/></g><g stroke-linecap="butt" stroke-miterlimit="1.45" font-family="sans-serif" shape-rendering="geometricPrecision" text-rendering="geometricPrecision" transform="matrix(1,0,0,1,154,160)"><text x="105.485" y="187.41" stroke="none" clip-path="url(#clipPath2)" xml:space="preserve">Yes</text><rect width="30" height="30" x="100.625" y="167.875" fill="none" clip-path="url(#clipPath2)"/></g><g fill="#FC0" stroke="#FC0" shape-rendering="geometricPrecision" text-rendering="geometricPrecision" transform="matrix(1,0,0,1,154,160)"><rect width="30" height="30" x="-4.875" y="167.875" stroke="none" clip-path="url(#clipPath2)"/></g><g stroke-linecap="butt" stroke-miterlimit="1.45" font-family="sans-serif" shape-rendering="geometricPrecision" text-rendering="geometricPrecision" transform="matrix(1,0,0,1,154,160)"><text x="2.007" y="187.41" stroke="none" clip-path="url(#clipPath2)" xml:space="preserve">No</text><rect width="30" height="30" x="-4.875" y="167.875" fill="none" clip-path="url(#clipPath2)"/><text x="-136.508" y="108.344" stroke="none" clip-path="url(#clipPath2)" xml:space="preserve">Wait 5 seconds</text><text x="-122.061" y="122.477" stroke="none" clip-path="url(#clipPath2)" xml:space="preserve">and repeat</text></g><g fill="#FC0" stroke="#FC0" shape-rendering="geometricPrecision" text-rendering="geometricPrecision" transform="matrix(1,0,0,1,154,160)"><rect width="130" height="30" x="388.125" y="-8.125" stroke="none" clip-path="url(#clipPath2)" rx="4" ry="4"/></g><g stroke-linecap="butt" stroke-miterlimit="1.45" font-family="sans-serif" shape-rendering="geometricPrecision" text-rendering="geometricPrecision" transform="matrix(1,0,0,1,154,160)"><text x="398.586" y="11.41" stroke="none" clip-path="url(#clipPath2)" xml:space="preserve">runner_checker(...)</text><rect width="130" height="30" x="388.125" y="-8.125" fill="none" clip-path="url(#clipPath2)" rx="4" ry="4"/></g><g fill="#FC0" stroke="#FC0" shape-rendering="geometricPrecision" text-rendering="geometricPrecision" transform="matrix(1,0,0,1,154,160)"><rect width="107" height="30" x="388.125" y="81.875" stroke="none" clip-path="url(#clipPath2)" rx="4" ry="4"/></g><g stroke-linecap="butt" stroke-miterlimit="1.45" font-family="sans-serif" shape-rendering="geometricPrecision" text-rendering="geometricPrecision" transform="matrix(1,0,0,1,154,160)"><text x="398.14" y="101.41" stroke="none" clip-path="url(#clipPath2)" xml:space="preserve">redistribute(...)</text><rect width="107" height="30" x="388.125" y="81.875" fill="none" clip-path="url(#clipPath2)" rx="4" ry="4"/><text x="138.818" y="207.527" fill="red" stroke="none" clip-path="url(#clipPath2)" xml:space="preserve">sends &apos;dispatch&apos;</text><text x="143.544" y="221.66" fill="red" stroke="none" clip-path="url(#clipPath2)" xml:space="preserve">message with</text><text x="147.467" y="235.793" fill="red" stroke="none" clip-path="url(#clipPath2)" xml:space="preserve">commit id</text></g><g fill="#FC0" stroke="#FC0" shape-rendering="geometricPrecision" text-rendering="geometricPrecision" transform="matrix(1,0,0,1,154,160)"><rect width="70" height="30" x="272.332" y="187.125" stroke="none" clip-path="url(#clipPath2)" rx="4" ry="4"/></g><g stroke-linecap="butt" stroke-miterlimit="1.45" font-family="sans-serif" shape-rendering="geometricPrecision" text-rendering="geometricPrecision" transform="matrix(1,0,0,1,154,160)"><text x="278.12" y="206.66" stroke="none" clip-path="url(#clipPath2)" xml:space="preserve">handle(...)</text><rect width="70" height="30" x="272.332" y="187.125" fill="none" clip-path="url(#clipPath2)" rx="4" ry="4"/><text x="434.668" y="227.527" fill="red" stroke="none" clip-path="url(#clipPath2)" xml:space="preserve">sends &apos;runtests&apos;</text><text x="440.442" y="241.66" fill="red" stroke="none" clip-path="url(#clipPath2)" xml:space="preserve">message with</text><text x="442.467" y="255.793" fill="red" stroke="none" clip-path="url(#clipPath2)" xml:space="preserve">commit id</text></g><g fill="#FC0" stroke="#FC0" shape-rendering="geometricPrecision" text-rendering="geometricPrecision" transform="matrix(1,0,0,1,154,160)"><rect width="143.75" height="30" x="723.875" y="-34.125" stroke="none" clip-path="url(#clipPath2)" rx="4" ry="4"/></g><g stroke-linecap="butt" stroke-miterlimit="1.45" font-family="sans-serif" shape-rendering="geometricPrecision" text-rendering="geometricPrecision" transform="matrix(1,0,0,1,154,160)"><text x="730.137" y="-14.59" stroke="none" clip-path="url(#clipPath2)" xml:space="preserve">dispatcher_checker(...)</text><rect width="143.75" height="30" x="723.875" y="-34.125" fill="none" clip-path="url(#clipPath2)" rx="4" ry="4"/></g><g fill="#FC0" stroke="#FC0" shape-rendering="geometricPrecision" text-rendering="geometricPrecision" transform="matrix(1,0,0,1,154,160)"><rect width="70" height="30" x="635.688" y="81.875" stroke="none" clip-path="url(#clipPath2)" rx="4" ry="4"/></g><g stroke-linecap="butt" stroke-miterlimit="1.45" font-family="sans-serif" shape-rendering="geometricPrecision" text-rendering="geometricPrecision" transform="matrix(1,0,0,1,154,160)"><text x="641.476" y="101.41" stroke="none" clip-path="url(#clipPath2)" xml:space="preserve">handle(...)</text><rect width="70" height="30" x="635.688" y="81.875" fill="none" clip-path="url(#clipPath2)" rx="4" ry="4"/><text x="697.945" y="234.704" fill="red" stroke="none" clip-path="url(#clipPath2)" xml:space="preserve">sends &apos;results&apos; message with</text><text x="691.778" y="248.837" fill="red" stroke="none" clip-path="url(#clipPath2)" xml:space="preserve">commit id, byte length, and</text><text x="739.837" y="262.97" fill="red" stroke="none" clip-path="url(#clipPath2)" xml:space="preserve">results output</text></g><g fill="#FC0" stroke="#FC0" shape-rendering="geometricPrecision" text-rendering="geometricPrecision" transform="matrix(1,0,0,1,154,160)"><rect width="92.168" height="30" x="324.541" y="146.948" stroke="none" clip-path="url(#clipPath2)" rx="4" ry="4"/></g><g stroke-linecap="butt" stroke-miterlimit="1.45" font-family="sans-serif" shape-rendering="geometricPrecision" text-rendering="geometricPrecision" transform="matrix(1,0,0,1,154,160)"><text x="341.413" y="166.483" stroke="none" clip-path="url(#clipPath2)" xml:space="preserve">handle(...)</text><rect width="92.168" height="30" x="324.541" y="146.948" fill="none" clip-path="url(#clipPath2)" rx="4" ry="4"/><text x="449.476" y="159.416" fill="red" stroke="none" clip-path="url(#clipPath2)" xml:space="preserve">Stores results</text><text x="466.51" y="173.549" fill="red" stroke="none" clip-path="url(#clipPath2)" xml:space="preserve">as a file</text></g><g fill="#fff" stroke="#fff" shape-rendering="geometricPrecision" text-rendering="geometricPrecision" transform="matrix(1,0,0,1,154,160)"><rect width="408.906" height="166.203" x="185" y="282.125" stroke="none" clip-path="url(#clipPath2)"/></g><g stroke-linecap="butt" stroke-miterlimit="1.45" font-family="sans-serif" shape-rendering="geometricPrecision" text-rendering="geometricPrecision" transform="matrix(1,0,0,1,154,160)"><text x="366.429" y="315.066" stroke="none" clip-path="url(#clipPath2)" xml:space="preserve">Legend:</text><rect width="408.906" height="166.203" x="185" y="282.125" fill="none" clip-path="url(#clipPath2)"/><text x="226.308" y="353.238" stroke="none" clip-path="url(#clipPath2)" xml:space="preserve">In process action</text><text x="456.856" y="357.957" stroke="none" clip-path="url(#clipPath2)" xml:space="preserve">socket message</text><text x="446.655" y="410.891" stroke="none" clip-path="url(#clipPath2)" xml:space="preserve">thread for handling</text><text x="456.856" y="425.023" stroke="none" clip-path="url(#clipPath2)" xml:space="preserve">socket message</text><text x="227.137" y="413.984" stroke="none" clip-path="url(#clipPath2)" xml:space="preserve">thread started at</text><text x="233.409" y="428.117" stroke="none" clip-path="url(#clipPath2)" xml:space="preserve">server start up</text><path fill="none" d="M65.625 -50.1287 L65.625 22.8783" clip-path="url(#clipPath2)"/></g><g fill="red" stroke="red" stroke-dasharray="6 2" stroke-linecap="butt" stroke-miterlimit="1.45" shape-rendering="geometricPrecision" text-rendering="geometricPrecision"><path fill="none" d="M670.6875 179.336 L670.6875 209.3018 L894.8319 209.3018 L894.8319 -144.8232 L346.4191 -144.8232 L346.4191 -100.1243" clip-path="url(#clipPath2)" transform="matrix(1,0,0,1,154,160)"/><path stroke="none" d="M346.4191 -92.1243 L351.4191 -104.1243 L346.4191 -101.1243 L341.4191 -104.1243 Z" clip-path="url(#clipPath2)" transform="matrix(1,0,0,1,154,160)"/><path fill="none" stroke="#000" stroke-dasharray="none" d="M65.625 52.8896 L65.625 104.875" clip-path="url(#clipPath2)" transform="matrix(1,0,0,1,154,160)"/><path fill="none" stroke="#000" stroke-dasharray="none" d="M77.5298 134.875 L103.7202 167.875" clip-path="url(#clipPath2)" transform="matrix(1,0,0,1,154,160)"/><path fill="none" d="M130.625 182.875 L206.125 182.875 L206.125 -71.125 L206.125 -144.3594 L310.625 -144.3594 L310.625 -100.1096" clip-path="url(#clipPath2)" transform="matrix(1,0,0,1,154,160)"/><path stroke="none" d="M310.625 -92.1096 L315.625 -104.1096 L310.625 -101.1096 L305.625 -104.1096 Z" clip-path="url(#clipPath2)" transform="matrix(1,0,0,1,154,160)"/><path fill="none" stroke="#000" stroke-dasharray="none" d="M52.4107 134.875 L23.3393 167.875" clip-path="url(#clipPath2)" transform="matrix(1,0,0,1,154,160)"/><path fill="none" stroke="#000" stroke-dasharray="none" d="M-4.875 182.875 L-36.875 182.875 L-36.875 182.875 L-36.875 37.875 L-7.3634 37.875" clip-path="url(#clipPath2)" transform="matrix(1,0,0,1,154,160)"/><path fill="#000" stroke="none" stroke-dasharray="none" d="M0.6366 37.875 L-11.3634 32.875 L-8.3634 37.875 L-11.3634 42.875 Z" clip-path="url(#clipPath2)" transform="matrix(1,0,0,1,154,160)"/></g><g fill="#66F" stroke="#66F" stroke-dasharray="0 4" stroke-dashoffset="2" stroke-linecap="round" stroke-miterlimit="1.45" shape-rendering="geometricPrecision" text-rendering="geometricPrecision"><path fill="none" d="M388.1482 6.875 L370.625 6.875 L370.625 -50.1396" clip-path="url(#clipPath2)" transform="matrix(1,0,0,1,154,160)"/><path fill="none" d="M370.625 -50.166 L370.625 96.875 L388.1323 96.875" clip-path="url(#clipPath2)" transform="matrix(1,0,0,1,154,160)"/></g><g fill="red" stroke="red" stroke-dasharray="6 2" stroke-linecap="butt" stroke-miterlimit="1.45" shape-rendering="geometricPrecision" text-rendering="geometricPrecision"><path fill="none" d="M307.3319 -50.1183 L307.3319 187.1296" clip-path="url(#clipPath2)" transform="matrix(1,0,0,1,154,160)"/><path fill="none" d="M342.3304 202.125 L570.125 202.125 L570.125 -62.875 L619.1074 -62.875" clip-path="url(#clipPath2)" transform="matrix(1,0,0,1,154,160)"/><path stroke="none" d="M627.1074 -62.875 L615.1074 -67.875 L618.1074 -62.875 L615.1074 -57.875 Z" clip-path="url(#clipPath2)" transform="matrix(1,0,0,1,154,160)"/></g><g fill="#66F" stroke="#66F" stroke-dasharray="0 4" stroke-dashoffset="2" stroke-linecap="round" stroke-miterlimit="1.45" shape-rendering="geometricPrecision" text-rendering="geometricPrecision"><path fill="none" d="M706.625 -50.127 L706.625 -19.125 L723.9017 -19.125" clip-path="url(#clipPath2)" transform="matrix(1,0,0,1,154,160)"/></g><g fill="red" stroke="red" stroke-dasharray="6 2" stroke-linecap="butt" stroke-miterlimit="1.45" shape-rendering="geometricPrecision" text-rendering="geometricPrecision"><path fill="none" d="M671.3944 -50.1125 L671.3944 81.9107" clip-path="url(#clipPath2)" transform="matrix(1,0,0,1,154,160)"/><path fill="none" stroke="#000" stroke-dasharray="none" d="M670.6875 111.8713 L670.6875 149.3776" clip-path="url(#clipPath2)" transform="matrix(1,0,0,1,154,160)"/><path fill="none" d="M346.3944 -50.1028 L346.3944 138.5101 L347.4503 146.9574" clip-path="url(#clipPath2)" transform="matrix(1,0,0,1,154,160)"/><path fill="none" d="M416.7149 161.9476 L438.5819 161.9476" clip-path="url(#clipPath2)" transform="matrix(1,0,0,1,154,160)"/><path fill="none" stroke="#000" stroke-dasharray="none" d="M215 332.2969 L336.5625 332.2969" clip-path="url(#clipPath2)" transform="matrix(1,0,0,1,154,160)"/><path fill="none" d="M442.3438 332.2969 L555.9062 332.2969" clip-path="url(#clipPath2)" transform="matrix(1,0,0,1,154,160)"/><path stroke="none" d="M563.9062 332.2969 L551.9062 327.2969 L554.9062 332.2969 L551.9062 337.2969 Z" clip-path="url(#clipPath2)" transform="matrix(1,0,0,1,154,160)"/><path fill="none" d="M442.3438 392.2969 L563.9062 392.2969" clip-path="url(#clipPath2)" transform="matrix(1,0,0,1,154,160)"/></g><g fill="#66F" stroke="#66F" stroke-dasharray="0 4" stroke-dashoffset="2" stroke-linecap="round" stroke-miterlimit="1.45" shape-rendering="geometricPrecision" text-rendering="geometricPrecision"><path fill="none" d="M215 392.2969 L336.5625 392.2969" clip-path="url(#clipPath2)" transform="matrix(1,0,0,1,154,160)"/></g></g></svg>