<svg xmlns="http://www.w3.org/2000/svg" xmlns:svg="http://www.w3.org/2000/svg" xmlns:xlink="http://www.w3.org/1999/xlink" id="svg2" width="600" height="300" version="1.1"><defs id="defs4"><marker id="Arrow2Mstart" orient="auto" refX="0" refY="0" style="overflow:visible"><path id="path3832" d="M 8.7185878,4.0337352 L -2.2072895,0.016013256 L 8.7185884,-4.0017078 C 6.9730900,-1.6296469 6.9831476,1.6157441 8.7185878,4.0337352 z" transform="scale(0.6) translate(0,0)" style="font-size:12;fill-rule:evenodd;stroke-width:.625;stroke-linejoin:round"/></marker><marker id="Arrow2Mend" orient="auto" refX="0" refY="0" style="overflow:visible"><path id="path3835" d="M 8.7185878,4.0337352 L -2.2072895,0.016013256 L 8.7185884,-4.0017078 C 6.9730900,-1.6296469 6.9831476,1.6157441 8.7185878,4.0337352 z" transform="scale(0.6) rotate(180) translate(0,0)" style="font-size:12;fill-rule:evenodd;stroke-width:.625;stroke-linejoin:round"/></marker></defs><metadata id="metadata7"/><g id="layer1" transform="translate(0,-752.36218)"><g id="g3029"><rect id="rect2985" width="128.972" height="78.505" x="18.495" y="937.263" rx="4.031" ry="3.001" style="fill:#fff;fill-opacity:1;stroke:#000;stroke-width:3;stroke-linecap:round;stroke-linejoin:round;stroke-miterlimit:4;stroke-opacity:1;stroke-dasharray:none"/><text id="text2993" x="82.927" y="970.867" xml:space="preserve" style="font-size:16px;font-style:normal;font-variant:normal;font-weight:700;font-stretch:normal;text-align:center;line-height:125%;letter-spacing:0;word-spacing:0;text-anchor:middle;fill:#000;fill-opacity:1;stroke:none;font-family:Sans;-inkscape-font-specification:Sans Bold"><tspan id="tspan2995" x="82.927" y="970.867">Requesting</tspan><tspan id="tspan2997" x="82.927" y="990.867">Program</tspan></text></g><g id="g3023" transform="translate(9.4170404,-1.3452915)"><rect id="rect2987" width="114.953" height="75.701" x="167.638" y="844.21" rx="4.031" ry="3.001" style="fill:#fff;fill-opacity:1;stroke:#000;stroke-width:3;stroke-linecap:round;stroke-linejoin:round;stroke-miterlimit:4;stroke-opacity:1;stroke-dasharray:none"/><text id="text2999" x="224.411" y="876.474" xml:space="preserve" style="font-size:16px;font-style:normal;font-variant:normal;font-weight:700;font-stretch:normal;text-align:center;line-height:125%;letter-spacing:0;word-spacing:0;text-anchor:middle;fill:#000;fill-opacity:1;stroke:none;font-family:Sans;-inkscape-font-specification:Sans Bold"><tspan id="tspan3001" x="224.411" y="876.474">Channel</tspan><tspan id="tspan3003" x="224.411" y="896.474">Dispatcher</tspan></text></g><g id="g3018" transform="translate(20.852018,-34.977579)"><rect id="rect2989" width="128.972" height="77.57" x="309.565" y="800.883" rx="4.031" ry="3.001" style="fill:#fff;fill-opacity:1;stroke:#000;stroke-width:3;stroke-linecap:round;stroke-linejoin:round;stroke-miterlimit:4;stroke-opacity:1;stroke-dasharray:none"/><text id="text3005" x="323.551" y="845.633" xml:space="preserve" style="font-size:16px;font-style:normal;font-variant:normal;font-weight:700;font-stretch:normal;line-height:125%;letter-spacing:0;word-spacing:0;fill:#000;fill-opacity:1;stroke:none;font-family:Sans;-inkscape-font-specification:Sans Bold"><tspan id="tspan3007" x="323.551" y="845.633">Connection</tspan></text></g><g id="g3013" transform="translate(2.0179372,92.825112)"><path id="path2991" d="m 554.8785,41.813084 c -0.57039,8.117631 5.04351,17.311333 1.45781,24.616403 -3.482,7.093806 -14.03722,7.982437 -20.00292,13.164802 -6.14336,5.336703 -8.67466,15.807256 -16.3756,18.437251 -7.47822,2.55393 -15.57025,-4.281383 -23.45312,-4.835279 -8.11763,-0.570392 -17.31133,5.043504 -24.6164,1.457807 -7.09381,-3.481997 -7.98244,-14.037226 -13.1648,-20.002918 -5.33671,-6.14336 -15.80726,-8.674666 -18.43725,-16.375601 -2.55394,-7.478222 4.28138,-15.570253 4.83528,-23.453119 0.57039,-8.117631 -5.04351,-17.311334 -1.45781,-24.616404 3.482,-7.0938062 14.03722,-7.9824368 20.00292,-13.1648015 6.14336,-5.3367036 8.67466,-15.8072565 16.3756,-18.4372515 7.47822,-2.553934 15.57025,4.281383 23.45312,4.835279 8.11763,0.570392 17.31133,-5.043503 24.6164,-1.457807 7.09381,3.481998 7.98244,14.0372262 13.1648,20.0029185 5.33671,6.14336 15.80726,8.6746655 18.43725,16.3756005 2.55394,7.478223 -4.28138,15.570253 -4.83528,23.45312 z" transform="translate(29.719626,783.95096)" style="fill:#fff;fill-opacity:1;stroke:#000;stroke-width:3;stroke-linecap:round;stroke-linejoin:round;stroke-miterlimit:4;stroke-opacity:1;stroke-dasharray:none"/><text id="text3009" x="492.329" y="827.987" xml:space="preserve" style="font-size:16px;font-style:normal;font-variant:normal;font-weight:700;font-stretch:normal;line-height:125%;letter-spacing:0;word-spacing:0;fill:#000;fill-opacity:1;stroke:none;font-family:Sans;-inkscape-font-specification:Sans Bold"><tspan id="tspan3011" x="492.329" y="827.987">Internet</tspan></text></g><path style="fill:none;stroke:#000;stroke-width:3;stroke-linecap:butt;stroke-linejoin:miter;stroke-miterlimit:4;stroke-opacity:1;stroke-dasharray:none;marker-end:url(#Arrow2Mend)" id="path3035" d="m 94.031821,931.39073 c -1.507538,-9.79899 34.795049,-44.01267 73.991029,-50.04282"/><path id="path4249" d="m 248.55443,838.67716 c -1.50753,-9.79899 35.54882,-32.70614 74.7448,-38.73629" style="fill:none;stroke:#000;stroke-width:3;stroke-linecap:butt;stroke-linejoin:miter;stroke-miterlimit:4;stroke-opacity:1;stroke-dasharray:none;marker-end:url(#Arrow2Mend)"/><path style="fill:none;stroke:#000;stroke-width:3;stroke-linecap:butt;stroke-linejoin:miter;stroke-miterlimit:4;stroke-opacity:1;stroke-dasharray:none;marker-end:url(#Arrow2Mend)" id="path4251" d="m 378.44111,852.48675 c 1.50753,9.79899 -35.54882,32.70614 -74.7448,38.73629"/><path id="path4253" d="m 266.88332,924.09479 c 15.07537,56.53266 -34.04129,13.10815 -49.87043,59.08805" style="fill:none;stroke:#000;stroke-width:3;stroke-linecap:butt;stroke-linejoin:miter;stroke-miterlimit:4;stroke-opacity:1;stroke-dasharray:none;marker-end:url(#Arrow2Mend)"/><text style="font-size:10px;font-style:normal;font-variant:normal;font-weight:700;font-stretch:normal;line-height:125%;letter-spacing:0;word-spacing:0;fill:#000;fill-opacity:1;stroke:none;font-family:Sans;-inkscape-font-specification:Sans Bold" id="text4255" transform="translate(-9.0452261,-9.0452261)" xml:space="preserve"><textPath id="textPath4275" xlink:href="#path3035"><tspan id="tspan4257">EnsureChannel()</tspan></textPath></text><text id="text4263" transform="translate(-7.5376885,-8.2914573)" xml:space="preserve" style="font-size:10px;font-style:normal;font-variant:normal;font-weight:700;font-stretch:normal;line-height:125%;letter-spacing:0;word-spacing:0;fill:#000;fill-opacity:1;stroke:none;font-family:Sans;-inkscape-font-specification:Sans Bold"><textPath id="textPath4278" xlink:href="#path4249"><tspan id="tspan4265">EnsureChannel()</tspan></textPath></text><text style="font-size:10px;font-style:normal;font-variant:normal;font-weight:700;font-stretch:normal;line-height:125%;letter-spacing:0;word-spacing:0;fill:#000;fill-opacity:1;stroke:none;font-family:Sans;-inkscape-font-specification:Sans Bold" id="text4267" x="330.151" y="900.855" xml:space="preserve"><tspan id="tspan4269" x="330.151" y="900.855">NewChannels</tspan></text><text id="text4271" x="241.206" y="974.724" xml:space="preserve" style="font-size:10px;font-style:normal;font-variant:normal;font-weight:700;font-stretch:normal;line-height:125%;letter-spacing:0;word-spacing:0;fill:#000;fill-opacity:1;stroke:none;font-family:Sans;-inkscape-font-specification:Sans Bold"><tspan id="tspan4273" x="241.206" y="974.724">HandleChannels()</tspan></text><text style="font-size:10px;font-style:normal;font-variant:normal;font-weight:700;font-stretch:normal;text-align:center;line-height:125%;letter-spacing:0;word-spacing:0;text-anchor:middle;fill:#000;fill-opacity:1;stroke:none;font-family:Sans;-inkscape-font-specification:Sans Bold" id="text4293" x="275.519" y="999.598" xml:space="preserve"><tspan id="tspan4295" x="275.519" y="999.598">Channel Dispatcher selects a client</tspan><tspan id="tspan4297" x="275.519" y="1012.098">to handle the channel, which may be</tspan><tspan id="tspan4299" x="275.519" y="1024.598">the requesting program</tspan></text><path style="fill:none;stroke:#000;stroke-width:3;stroke-linecap:butt;stroke-linejoin:miter;stroke-miterlimit:4;stroke-opacity:1;stroke-dasharray:18,3;stroke-dashoffset:0;marker-start:url(#Arrow2Mstart);marker-end:url(#Arrow2Mend)" id="path4301" d="m 466.58291,51.256281 c 57.28643,-4.522613 70.10051,-2.261306 70.85428,44.472362" transform="translate(0,752.36218)"/></g></svg>