<svg xmlns="http://www.w3.org/2000/svg" xmlns:svg="http://www.w3.org/2000/svg" id="svg3059" width="724" height="384" version="1.1"><metadata id="metadata3131"/><g id="g3063" transform="translate(0.5,0.5)"><ellipse id="ellipse3065" cx="362" cy="192" fill="#66b2ff" stroke="#000" d="M 722,192 C 722,296.9341 560.82251,382 362,382 163.17749,382 2,296.9341 2,192 2,87.065898 163.17749,2 362,2 560.82251,2 722,87.065898 722,192 z" rx="360" ry="190"/><rect id="rect3067" width="60" height="40" x="342" y="182" fill="none" stroke="none"/><g id="g3069" font-size="14" transform="translate(-0.80503145,-173.08176)" style="font-size:14px;fill:#000;font-family:Consolas"><text id="text3071" x="344" y="197">Heap</text></g><ellipse id="ellipse3073" cx="182" cy="192" fill="#f99" stroke="#000" d="M 322,192 C 322,274.84271 259.31986,342 182,342 104.68014,342 42,274.84271 42,192 42,109.15729 104.68014,42 182,42 c 77.31986,0 140,67.15729 140,150 z" rx="140" ry="150"/><rect id="rect3075" width="105" height="20" x="132" y="182" fill="none" stroke="none"/><g id="g3077" font-size="14" transform="translate(-5.6352233,-114.31447)" style="font-size:14px;fill:#000;font-family:Consolas"><text id="text3079" x="134" y="197">Spidermonkey</text></g><ellipse id="ellipse3081" cx="542" cy="192" fill="#9f9" stroke="#000" d="m 682,192 c 0,82.84271 -62.68014,150 -140,150 -77.31986,0 -140,-67.15729 -140,-150 0,-82.84271 62.68014,-150 140,-150 77.31986,0 140,67.15729 140,150 z" rx="140" ry="150"/><rect id="rect3083" width="60" height="30" x="522" y="177" fill="none" stroke="none"/><g id="g3085" font-size="14" transform="translate(1.6100644,-115.92453)" style="font-size:14px;fill:#000;font-family:Consolas"><text id="text3087" x="524" y="192">Gecko</text></g><rect id="rect3089" width="120" height="60" x="86.579" y="105.346" rx="9" ry="9" style="fill:#f99;stroke:#000"/><rect id="rect3091" width="60" height="20" x="155" y="102" fill="none" stroke="none"/><g id="g3093" font-size="14" transform="translate(-37.836478,22.540881)" style="font-size:14px;fill:#000;font-family:Consolas"><text id="text3095" x="157" y="117">GC Heap</text></g><rect id="rect3097" width="220" height="60" x="436.025" y="156.742" rx="9" ry="9" style="fill:#9f9;stroke:#000"/><rect id="rect3099" width="200" height="50" x="452" y="102" fill="none" stroke="none"/><g id="g3101" font-size="14" transform="translate(7.245283,56.352201)" style="font-size:14px;fill:#000;font-family:Consolas"><text id="text3103" x="454" y="117">Reference Counted Heap</text></g><rect id="rect3105" width="200" height="33" x="449.245" y="178.327" rx="5" ry="5" style="fill:#9f9;stroke:#000"/><rect id="rect3107" width="180" height="40" x="462" y="132" fill="none" stroke="none"/><g id="g3109" font-size="14" transform="translate(5.6352201,50.716981)" style="font-size:14px;fill:#000;font-family:Consolas"><text id="text3111" x="464" y="147">Cycle Collected Heap</text></g><rect id="rect3113" width="120" height="60" x="162" y="232" fill="#f99" stroke="#000" rx="9" ry="9"/><rect id="rect3115" width="90" height="30" x="182" y="247" fill="none" stroke="none"/><g id="g3117" fill="#000" font-family="Consolas" font-size="12"><text id="text3119" x="184" y="260">Manual Heap</text></g><rect id="rect3121" width="120" height="60" x="442" y="232" fill="#9f9" stroke="#000" rx="9" ry="9"/><rect id="rect3123" width="90" height="30" x="457" y="247" fill="none" stroke="none"/><g id="g3125" fill="#000" font-family="Consolas" font-size="12"><text id="text3127" x="459" y="260">Manual Heap</text></g><text style="font-size:40px;font-style:normal;font-variant:normal;font-weight:400;font-stretch:normal;line-height:125%;letter-spacing:0;word-spacing:0;fill:#000;fill-opacity:1;stroke:none;font-family:Consolas;-inkscape-font-specification:Consolas" id="text3916" x="332.783" y="247.45" xml:space="preserve"><tspan id="tspan3918" x="332.783" y="247.45" style="font-size:14px">jemalloc</tspan></text></g><rect style="opacity:0" id="rect3907" width="653.686" height="314.767" x="49.912" y="49.912"/><path style="opacity:1;fill:#000;stroke:#000;stroke-opacity:1;fill-opacity:.25098041" id="path3911" d="m 606.99373,252.37737 a 206.08806,76.07547 0 1 1 -412.17612,0 206.08806,76.07547 0 1 1 412.17612,0 z" transform="matrix(1.3124596,-0.23883001,0.2390607,1.4078,-172.71982,-26.491939)"/></svg>